<?xml version="1.0" encoding="UTF-8" standalone="no"?>
<!-- Created with Inkscape (http://www.inkscape.org/) -->

<svg
   xmlns:osb="http://www.openswatchbook.org/uri/2009/osb"
   xmlns:dc="http://purl.org/dc/elements/1.1/"
   xmlns:cc="http://creativecommons.org/ns#"
   xmlns:rdf="http://www.w3.org/1999/02/22-rdf-syntax-ns#"
   xmlns:svg="http://www.w3.org/2000/svg"
   xmlns="http://www.w3.org/2000/svg"
   xmlns:xlink="http://www.w3.org/1999/xlink"
   xmlns:sodipodi="http://sodipodi.sourceforge.net/DTD/sodipodi-0.dtd"
   xmlns:inkscape="http://www.inkscape.org/namespaces/inkscape"
   width="878.31641"
   height="274.11407"
   viewBox="0 0 878.3164 274.11407"
   id="svg2"
   version="1.1"
   inkscape:version="0.92.3 (2405546, 2018-03-11)"
   sodipodi:docname="dspc-logo-darkbg.svg"
   inkscape:export-filename="C:\Users\Eduardo Arruda\Google Drive\_Doc.Space\dspc-root\Marketing\Doc.Space\Identidade Visual\Logo\v5\dspc-logo-wallpaper.png"
   inkscape:export-xdpi="96"
   inkscape:export-ydpi="96">
  <defs
     id="defs4">
    <linearGradient
       id="linearGradient4170"
       osb:paint="solid">
      <stop
         style="stop-color:#00c5e7;stop-opacity:1;"
         offset="0"
         id="stop4172" />
    </linearGradient>
    <linearGradient
       id="linearGradient4164"
       osb:paint="solid">
      <stop
         style="stop-color:#000000;stop-opacity:1;"
         offset="0"
         id="stop4166" />
    </linearGradient>
    <linearGradient
       inkscape:collect="always"
       xlink:href="#linearGradient4170"
       id="linearGradient4174"
       x1="553.71118"
       y1="695.90594"
       x2="1198.4128"
       y2="695.90594"
       gradientUnits="userSpaceOnUse" />
  </defs>
  <sodipodi:namedview
     id="base"
     pagecolor="#00a3e0"
     bordercolor="#666666"
     borderopacity="0.62352941"
     inkscape:pageopacity="0"
     inkscape:pageshadow="2"
     inkscape:zoom="0.63802083"
     inkscape:cx="872.37057"
     inkscape:cy="-220.04344"
     inkscape:document-units="px"
     inkscape:current-layer="layer2"
     showgrid="false"
     inkscape:window-width="2048"
     inkscape:window-height="1099"
     inkscape:window-x="1012"
     inkscape:window-y="445"
     inkscape:window-maximized="1"
     showborder="true"
     units="px"
     fit-margin-top="0"
     fit-margin-left="0"
     fit-margin-right="0"
     fit-margin-bottom="0" />
  <metadata
     id="metadata7">
    <rdf:RDF>
      <cc:Work
         rdf:about="">
        <dc:format>image/svg+xml</dc:format>
        <dc:type
           rdf:resource="http://purl.org/dc/dcmitype/StillImage" />
        <dc:title></dc:title>
      </cc:Work>
    </rdf:RDF>
  </metadata>
  <g
     inkscape:groupmode="layer"
     id="layer2"
     inkscape:label="logo"
     style="display:inline"
     transform="translate(-520.8418,1577.2165)">
    <g
       id="g4171"
       inkscape:export-xdpi="118.97654"
       inkscape:export-ydpi="118.97654"
       transform="matrix(0.9081911,0,0,0.9081911,486.55226,-2058.0151)">
      <g
         transform="matrix(0.7258457,0,0,0.7258457,132.49828,206.71442)"
         inkscape:export-ydpi="299.98254"
         inkscape:export-xdpi="299.98254"
         id="text4752"
         style="font-style:normal;font-weight:normal;font-size:227.96081543px;line-height:125%;font-family:sans-serif;letter-spacing:0px;word-spacing:0px;fill:#ffffff;fill-opacity:1;stroke:#ffffff;stroke-width:6.88851643;stroke-linecap:butt;stroke-linejoin:miter;stroke-miterlimit:4;stroke-dasharray:none;stroke-opacity:1">
        <path
           inkscape:connector-curvature="0"
           d="m 1198.4129,668.57959 v 10.01781 h -94.1675 q 1.3358,21.14871 12.6893,32.2796 11.4648,11.01959 31.8343,11.01959 11.7988,0 22.8184,-2.89403 11.1309,-2.89403 22.0392,-8.6821 v 19.36776 q -11.0196,4.67498 -22.5958,7.12378 -11.5761,2.4488 -23.4862,2.4488 -29.8308,0 -47.3063,-17.36421 -17.3642,-17.3642 -17.3642,-46.97239 0,-30.60997 16.4738,-48.53072 16.585,-18.03206 44.6349,-18.03206 25.1558,0 39.7373,16.25112 14.6928,16.1398 14.6928,43.96705 z m -20.4809,-6.01069 q -0.2226,-16.80766 -9.4613,-26.82546 -9.1273,-10.01781 -24.2653,-10.01781 -17.1416,0 -27.4933,9.68388 -10.2405,9.68388 -11.7988,27.2707 z m -121.9946,-46.41585 v 19.14515 q -8.6821,-4.78629 -17.4755,-7.12378 -8.6821,-2.44879 -17.5869,-2.44879 -19.9243,0 -30.94386,12.68922 -11.01959,12.57792 -11.01959,35.39626 0,22.81834 11.01959,35.50757 11.01956,12.57791 30.94386,12.57791 8.9048,0 17.5869,-2.33748 8.7934,-2.4488 17.4755,-7.23509 v 18.92253 q -8.5708,4.00712 -17.8095,6.01069 -9.1273,2.00356 -19.479,2.00356 -28.16122,0 -44.74626,-17.69813 -16.58504,-17.69813 -16.58504,-47.75156 0,-30.49866 16.69635,-47.97418 16.80766,-17.47551 45.97065,-17.47551 9.4612,0 18.4773,2.00357 9.016,1.89225 17.4755,5.78806 z m -172.86288,57.21282 q -24.8219,0 -34.39448,5.67676 -9.57257,5.67676 -9.57257,19.36777 0,10.90828 7.12377,17.3642 7.23509,6.34461 19.59039,6.34461 17.03027,0 27.2707,-12.02137 10.35174,-12.13268 10.35174,-32.1683 v -4.56367 z m 40.8504,-8.45948 v 71.12645 h -20.48085 v -18.92253 q -7.01247,11.35352 -17.47552,16.80766 -10.46304,5.34283 -25.60106,5.34283 -19.14515,0 -30.49867,-10.68567 -11.24221,-10.79697 -11.24221,-28.82902 0,-21.0374 14.02494,-31.72307 14.13624,-10.68566 42.0748,-10.68566 h 28.71772 v -2.00356 q 0,-14.13624 -9.34996,-21.81656 -9.23865,-7.79163 -26.0463,-7.79163 -10.68567,0 -20.81479,2.5601 -10.12911,2.56011 -19.47907,7.68032 v -18.92253 q 11.24221,-4.34105 21.81656,-6.45592 10.57436,-2.22618 20.59217,-2.22618 27.04808,0 40.40516,14.02494 13.35708,14.02493 13.35708,42.52003 z m -222.39538,52.42654 v 66.11754 h -20.59217 v -172.0837 h 20.59217 v 18.92252 q 6.45592,-11.13089 16.25111,-16.47373 9.9065,-5.45414 23.59751,-5.45414 22.70703,0 36.84327,18.03206 14.24755,18.03206 14.24755,47.41763 0,29.38557 -14.24755,47.41763 -14.13624,18.03206 -36.84327,18.03206 -13.69101,0 -23.59751,-5.34283 -9.79519,-5.45414 -16.25111,-16.58504 z m 69.67943,-43.52182 q 0,-22.59572 -9.34996,-35.39626 -9.23864,-12.91184 -25.48976,-12.91184 -16.25111,0 -25.60107,12.91184 -9.23864,12.80054 -9.23864,35.39626 0,22.59573 9.23864,35.50757 9.34996,12.80053 25.60107,12.80053 16.25112,0 25.48976,-12.80053 9.34996,-12.91184 9.34996,-35.50757 z M 642.31315,615.03996 v 19.36777 q -8.6821,-4.45236 -18.03206,-6.67854 -9.34995,-2.22618 -19.36776,-2.22618 -15.24933,0 -22.92965,4.67498 -7.56901,4.67497 -7.56901,14.02493 0,7.12377 5.45414,11.24221 5.45414,4.00712 21.92787,7.68032 l 7.01247,1.55832 q 21.81656,4.67498 30.94389,13.24577 9.23865,8.45949 9.23865,23.70882 0,17.3642 -13.80231,27.49332 -13.69101,10.12912 -37.73375,10.12912 -10.01781,0 -20.92609,-2.00356 -10.79697,-1.89226 -22.81835,-5.78807 v -21.14871 q 11.35352,5.89938 22.37311,8.90472 11.01959,2.89403 21.81656,2.89403 14.47017,0 22.2618,-4.89759 7.79163,-5.00891 7.79163,-14.02494 0,-8.34817 -5.67676,-12.80053 -5.56545,-4.45236 -24.59928,-8.57079 l -7.12378,-1.66964 q -19.03384,-4.00712 -27.49332,-12.24399 -8.45948,-8.34817 -8.45948,-22.81834 0,-17.58682 12.4666,-27.15939 12.46661,-9.57258 35.39626,-9.57258 11.35352,0 21.37133,1.66964 10.01781,1.66963 18.47729,5.0089 z"
           style="fill:#ffffff;fill-opacity:1;stroke:#ffffff;stroke-width:6.88851643;stroke-miterlimit:4;stroke-dasharray:none;stroke-opacity:1"
           id="path5643" />
      </g>
      <path
         id="path4401"
         transform="translate(0,308.26772)"
         d="m 226.93359,221.13477 a 114.33957,114.33957 0 0 0 -106.8789,74.09765 93.035454,93.03544 0 0 0 -82.298831,92.29688 93.035454,93.03544 0 0 0 93.035161,93.03711 93.035454,93.03544 0 0 0 32.71484,-5.99219 119.46191,119.46191 0 0 0 95.85547,48.38476 119.46191,119.46191 0 0 0 77.10351,-28.38281 45.731511,45.731511 0 0 0 22.56836,5.99219 45.731511,45.731511 0 0 0 40.94141,-25.47852 93.035454,93.03544 0 0 0 31.11328,5.47657 93.035454,93.03544 0 0 0 93.03516,-93.03711 93.035454,93.03544 0 0 0 -93.03516,-93.03516 93.035454,93.03544 0 0 0 -34.79297,6.80664 70.611454,70.611454 0 0 0 -63.43554,-39.71484 70.611454,70.611454 0 0 0 -16.95508,2.14062 114.33957,114.33957 0 0 0 -88.97071,-42.59179 z m -28.87109,28.57617 v 205.20703 h -23.16797 v -16.625 a 67.368805,67.368805 0 0 1 -44.2207,16.60547 67.368805,67.368805 0 0 1 -67.369142,-67.36914 67.368805,67.368805 0 0 1 67.369142,-67.36914 67.368805,67.368805 0 0 1 44.2207,16.65625 v -75.3125 a 90.835539,90.835525 0 0 1 23.16797,-11.79297 z m 82.75977,70.44922 a 67.368805,67.368805 0 0 1 67.36914,67.36914 67.368805,67.368805 0 0 1 -67.36914,67.36914 67.368805,67.368805 0 0 1 -67.36915,-67.36914 67.368805,67.368805 0 0 1 67.36915,-67.36914 z m 150.14843,0 a 67.368805,67.368805 0 0 1 56.44922,30.71093 36.68586,36.68586 0 0 0 -0.54492,-0.0273 36.68586,36.68586 0 0 0 -21.86914,7.28125 45.032625,45.032623 0 0 0 -34.03516,-15.62695 45.032625,45.032623 0 0 0 -45.03125,45.03125 45.032625,45.032623 0 0 0 45.03125,45.0332 45.032625,45.032623 0 0 0 34.0625,-15.61133 36.68586,36.68586 0 0 0 21.8418,7.26367 36.68586,36.68586 0 0 0 0.5957,-0.0215 67.368805,67.368805 0 0 1 -56.5,30.70508 67.368805,67.368805 0 0 1 -67.36914,-67.36914 67.368805,67.368805 0 0 1 67.36914,-67.36914 z m -300.29687,22.33789 a 45.032625,45.032623 0 0 0 -45.031252,45.03125 45.032625,45.032623 0 0 0 45.031252,45.0332 45.032625,45.032623 0 0 0 44.2207,-36.64844 v -16.73828 a 45.032625,45.032623 0 0 0 -44.2207,-36.67773 z m 150.14844,0 a 45.032625,45.032623 0 0 0 -45.03321,45.03125 45.032625,45.032623 0 0 0 45.03321,45.0332 45.032625,45.032623 0 0 0 45.0332,-45.0332 45.032625,45.032623 0 0 0 -45.0332,-45.03125 z M 486.875,372.5293 a 15.000397,15.000397 0 0 1 15,15 15.000397,15.000397 0 0 1 -15,15 15.000397,15.000397 0 0 1 -15,-15 15.000397,15.000397 0 0 1 15,-15 z"
         style="display:inline;opacity:1;fill:#ffffff;fill-opacity:1;stroke:none;stroke-width:0.625;stroke-miterlimit:4;stroke-dasharray:none;stroke-opacity:1"
         inkscape:connector-curvature="0" />
    </g>
  </g>
</svg>
